<svg width="63" height="54" viewBox="0 0 63 54" fill="none" xmlns="http://www.w3.org/2000/svg">
<g clip-path="url(#clip0_4_3)">
<path d="M59.2529 43.2975C56.3068 47.1661 51.3569 48.7152 45.2605 47.7211C45.7195 47.2104 46.1417 46.6759 46.5249 46.1179C47.3221 46.209 48.0944 46.2564 48.8363 46.2564C53.3038 46.2564 56.7298 44.6226 58.6265 41.5343C61.1343 37.4505 60.3128 32.0037 58.2919 28.9952C54.3383 22.2708 48.6095 15.498 42.5021 10.3025C42.9204 10.0075 43.3415 9.71767 43.7654 9.43338C50.5578 14.9401 56.0877 21.5755 60.6447 29.6922C62.6974 33.8217 62.1116 39.5438 59.2529 43.2975ZM39.3952 51.0159C32.264 54.5043 23.5019 53.3858 18.9755 48.5394C19.4843 48.3314 19.9735 48.0996 20.4455 47.8462C23.6323 50.4188 27.2362 51.5044 30.7249 51.5044C35.2082 51.5035 39.4988 49.716 42.4545 47.0085C46.791 43.0366 49.5271 36.0116 44.2415 28.1858C44.4893 27.7793 44.748 27.3662 45.016 26.9489C46.0356 28.0772 46.704 29.5638 47.4028 31.1339C47.5603 31.4864 47.7184 31.8412 47.8803 32.1931C48.9469 36.7865 48.4351 41.0015 46.5261 44.4475C46.5075 44.4453 46.4904 44.4442 46.4722 44.442L46.4553 44.5771C44.9314 47.2622 42.5501 49.472 39.3952 51.0159ZM11.3466 49.022C7.81161 48.9068 4.57797 46.9332 2.69607 43.7419C0.198548 39.5075 0.351812 33.9577 3.11314 28.5189C4.51497 25.842 6.15151 23.7588 7.88528 21.553C8.58565 20.6624 9.30372 19.7445 10.0059 18.7864C10.3651 19.156 10.7302 19.527 11.0983 19.9011C11.1646 19.9683 11.2309 20.0355 11.2972 20.103C7.16282 24.7657 4.19922 29.5067 3.13229 33.1964C2.12576 36.7923 2.57671 40.2563 4.40077 42.9508C6.06049 45.4032 8.77465 47.0492 11.6612 47.3552L11.7132 47.361L11.7662 47.3594C17.3379 47.2367 21.5854 45.1202 23.7278 41.3992C25.7725 37.8482 25.6667 33.1244 23.4581 29.0606C23.7583 28.6682 24.063 28.2777 24.3725 27.8898C27.1688 32.7766 27.4307 38.1315 25.0474 42.2864C22.5433 46.651 17.532 49.0976 11.3466 49.022ZM5.67586 11.3807C4.73271 7.08469 5.82656 3.71916 8.67629 2.14624C12.2537 0.17196 17.5298 1.49233 21.676 5.34561C21.3478 5.63804 21.0232 5.93529 20.7012 6.23548C15.7739 1.91325 11.4251 2.2474 9.18286 3.87017C6.89902 5.52323 6.30807 8.63731 7.68893 11.83C8.63981 13.8401 10.9023 16.2121 13.297 18.7217C15.2231 20.7396 17.2034 22.8213 18.5736 24.7845C18.2044 25.2579 17.8419 25.7375 17.49 26.2275C16.1383 23.7868 13.8942 21.505 11.7139 19.2922C9.05133 16.5887 6.53575 14.0358 5.67586 11.3807ZM27.794 1.84346C32.9567 0.0224188 36.4563 2.40691 38.968 4.969C38.5413 5.28394 38.1103 5.6096 37.6748 5.94598L37.4607 5.77689C34.884 3.72434 31.962 1.39817 26.6486 4.35941L26.5204 4.44728C22.2942 7.98267 19.0083 10.8265 15.5834 14.8452C15.25 14.4664 14.9177 14.0835 14.5872 13.6969C15.0548 13.2088 15.5237 12.7166 15.9964 12.2196C19.6158 8.40988 23.3579 4.46907 27.794 1.84346ZM48.7322 43.0039C51.6058 43.0039 54.0736 41.8198 55.6036 39.6726C57.1136 37.5535 57.4585 34.7771 56.4657 32.5653C52.2052 24.9241 46.4036 17.6661 40.0998 12.0704C40.4358 11.8134 40.7765 11.5579 41.1194 11.3039C47.2061 16.4166 52.9341 23.1536 56.8901 29.88C58.6486 32.5008 59.3604 37.1714 57.2148 40.6637C55.4292 43.5716 52.07 44.9028 47.4702 44.5428C47.7338 44.0391 47.9706 43.5207 48.1781 42.9884C48.3641 42.9978 48.549 43.0039 48.7322 43.0039ZM41.4551 31.3128C40.2625 33.6207 40.139 37.8712 42.5336 39.8016C42.286 40.4809 41.9555 41.1336 41.5443 41.7534C35.7542 35.8023 40.8563 28.6028 44.6037 23.3227C45.4517 22.126 46.203 21.0649 46.7518 20.1274C47.1373 20.5801 47.5186 21.0372 47.8952 21.4998C45.1776 24.7709 42.9085 28.6064 41.4551 31.3128ZM42.8104 38.8927C41.2708 37.3381 41.1293 34.187 42.0696 32.0422C43.1022 34.4287 43.3382 36.7701 42.8104 38.8927ZM31.0477 47.8916C34.1582 47.8916 37.2827 46.8094 39.5858 45.0557C44.0699 41.6382 45.1809 36.4168 42.5736 31.0663C42.7988 30.6568 43.0409 30.2259 43.2973 29.7803C47.4067 36.4614 45.0386 42.3914 41.3368 45.782C36.705 50.0248 28.4525 51.7705 21.9531 46.9199C22.607 46.4577 23.2097 45.941 23.7642 45.3791C25.8576 47.1337 28.4464 47.8925 31.0477 47.8916ZM29.6291 21.7048L30.9764 20.1651C32.7995 21.9599 34.5572 23.7946 36.2899 25.6049L37.5856 26.9559C36.8951 28.1622 36.2626 29.4383 35.713 30.8409C34.6688 34.7865 34.0609 39.9107 38.4872 44.774C34.511 47.4447 28.4155 48.1173 24.3522 44.7422C24.8923 44.1172 25.3801 43.4459 25.7972 42.7184C28.3843 38.2087 28.0679 32.4014 24.9587 27.1672C26.439 25.3487 28.0074 23.5546 29.6291 21.7048ZM20.8902 31.1273C18.746 33.6506 18.1952 37.5167 19.5462 40.392C19.1365 40.8522 18.6185 41.3047 17.9646 41.7104C16.5955 37.9523 16.9267 34.3022 18.9324 31.1411C21.4528 27.34 24.6606 23.4353 29.2892 18.5364C29.6476 18.8754 30.0035 19.2158 30.3569 19.5588L28.9797 21.1332C26.0337 24.4936 23.251 27.6675 20.8902 31.1273ZM20.6319 33.0591C21.3072 34.5905 21.6068 36.982 20.3913 39.1996C20.3184 39.3322 20.2351 39.4682 20.1463 39.605C19.3627 37.5765 19.5628 35.0922 20.6319 33.0591ZM7.68412 30.934C5.32659 35.3675 6.06565 38.4782 7.10093 40.307C8.49502 42.7683 11.0412 43.9649 13.0034 44.0574C13.4455 44.0208 13.8581 43.9654 14.2575 43.9012C14.2645 43.9206 14.27 43.9399 14.2767 43.959L14.5905 43.8469C18.4332 43.143 20.2749 41.212 21.1492 39.6169C22.6262 36.9216 22.1155 33.9943 21.2295 32.3059L21.0099 32.4213C21.1838 32.1546 21.3699 31.896 21.5762 31.6529C21.83 31.2815 22.0905 30.9151 22.3536 30.5502C23.9433 33.9389 23.9363 37.7128 22.292 40.5687C20.9926 42.8256 18.1163 45.543 11.7835 45.6973C9.39545 45.4287 7.15213 44.0562 5.77201 42.0186C4.67855 40.4031 3.61051 37.6397 4.72608 33.6517C5.71896 30.2201 8.52412 25.7464 12.4592 21.2923C12.7882 21.6335 13.1128 21.9765 13.4315 22.3214C11.039 25.2678 9.25434 27.9407 7.68412 30.934ZM15.6439 29.0492C12.887 32.6307 12.2993 37.702 13.9841 43.0751C13.6651 43.1225 13.3372 43.164 12.989 43.1928C11.3201 43.1117 9.08523 42.0549 7.85287 39.8791C6.92555 38.2403 6.27419 35.4273 8.44786 31.3394C9.97312 28.4322 11.7066 25.8309 14.0202 22.9712C15.194 24.2931 16.2341 25.643 16.9385 27.0283C16.4916 27.6837 16.055 28.3514 15.6439 29.0492ZM28.8499 6.93036C24.3685 10.1032 20.5269 13.6463 17.6916 17.2105C17.5239 17.0233 17.3552 16.8339 17.1887 16.6481C17.0247 16.4654 16.86 16.2811 16.695 16.0969C20.0749 12.1033 23.328 9.28346 27.5218 5.77429C31.7642 3.43853 33.9006 5.06537 36.3333 6.99979C35.9799 7.28225 35.624 7.5695 35.2656 7.86229C33.6776 6.60949 31.7034 5.39953 28.8499 6.93036ZM27.5811 8.93049C28.1436 8.50292 28.7178 8.08125 29.3025 7.66698C31.4533 6.51498 32.9247 7.17037 34.5751 8.42871C33.3458 9.44225 32.0866 10.506 30.7995 11.5949C29.7634 10.7268 28.6918 9.84212 27.5811 8.93049ZM40.7712 22.1379C40.4634 22.5651 40.1586 22.9912 39.8594 23.4187C39.0357 22.6123 38.2147 21.8004 37.3922 20.984C33.7536 17.3763 29.9916 13.6555 25.7747 10.3579C26.1369 10.0607 26.5042 9.76569 26.8778 9.47362C32.3044 13.9243 36.792 17.7108 40.7712 22.1379ZM41.4592 21.1871C41.4023 21.2654 41.346 21.3429 41.2896 21.4208C39.4941 19.4347 37.5991 17.576 35.5663 15.7302C36.7381 14.7437 38.0307 13.6781 39.4029 12.6084C41.0426 14.0565 42.6474 15.6198 44.2006 17.2732C43.3106 18.6339 42.3692 19.9317 41.4592 21.1871ZM42.1583 21.697C43.0356 20.487 43.94 19.2361 44.8063 17.9235C45.0707 18.2118 45.3326 18.5046 45.594 18.7978C45.0939 19.7626 44.2406 20.967 43.2531 22.359C39.3626 27.8413 33.5008 36.1044 40.5032 43.0671C40.1103 43.4872 39.6723 43.8859 39.1918 44.2623C34.9761 39.6825 35.556 34.8137 36.5331 31.1112C37.9539 27.4925 39.9962 24.6767 42.1583 21.697ZM26.3811 15.906C25.5378 16.8575 24.6901 17.7894 23.8468 18.7099C22.9946 19.6407 22.1583 20.5576 21.3419 21.4795C20.3438 20.2256 19.3097 19.026 18.2777 17.8659C19.5683 16.2302 21.0762 14.5978 22.7625 13.0053C24.01 13.9299 25.2136 14.901 26.3811 15.906ZM23.4072 12.4064C23.7583 12.0856 24.1146 11.7658 24.4793 11.449C28.7324 14.7388 32.542 18.5113 36.2261 22.1648C37.1216 23.0528 38.0144 23.9379 38.9108 24.8137C38.6143 25.263 38.3247 25.7179 38.0432 26.1821L36.9136 25.0046C32.752 20.6561 28.4497 16.1663 23.4072 12.4064ZM17.7781 9.10994C16.965 9.94439 16.1641 10.7862 15.3698 11.6225C14.9196 12.0966 14.4723 12.5656 14.0261 13.0315C13.2101 12.0534 12.4135 11.0465 11.6653 9.9946C11.2663 8.64543 11.3805 7.67437 11.9873 7.25713C12.779 6.71104 14.7486 6.91078 17.7781 9.10994ZM11.4973 6.54228C10.9454 6.92222 10.1279 7.91806 10.8577 10.314L10.9189 10.4384C11.7132 11.5594 12.5583 12.6261 13.423 13.6596C13.4024 13.681 13.3814 13.7028 13.3607 13.7242L13.9812 14.3279C13.9827 14.3268 13.9838 14.3253 13.9852 14.3238C14.8341 15.316 15.6962 16.2793 16.5458 17.2271C17.952 18.7949 19.3988 20.418 20.762 22.1401C20.3877 22.5706 20.0189 23.0037 19.656 23.4409C18.2376 21.4973 16.3391 19.5067 14.4951 17.5738C12.1947 15.1638 10.0229 12.8864 9.19833 11.1433C8.13435 8.68348 8.50019 6.41268 10.1526 5.21712C11.8838 3.96468 15.3506 3.80631 19.4953 7.38562C19.124 7.74895 18.7566 8.11595 18.3915 8.48481C15.4339 6.31523 12.8851 5.58709 11.4973 6.54228ZM17.9347 27.1066C18.6192 26.1311 19.3369 25.1918 20.0859 24.2779L20.1924 24.2067C20.1854 24.196 20.1773 24.1852 20.1699 24.1746C21.5335 22.5182 22.988 20.9294 24.4841 19.2963C25.3322 18.3706 26.1855 17.432 27.0336 16.4742C27.3832 16.7825 27.7302 17.0931 28.074 17.4066C23.3837 22.3723 20.1239 26.3416 17.5431 30.2358C15.2099 33.9123 14.8444 38.1273 16.4695 42.4451C15.9817 42.6312 15.4383 42.7902 14.8429 42.9186C13.2049 37.7806 13.7314 32.9511 16.359 29.5344C16.8423 28.7147 17.357 27.9341 17.8894 27.1727L17.9528 27.1443C17.9469 27.1317 17.9402 27.1192 17.9347 27.1066ZM48.7131 31.9525L48.6838 31.8686C48.5158 31.5072 48.3539 31.143 48.1925 30.7806C47.4641 29.1445 46.7062 27.4607 45.5012 26.2031C46.3981 24.8484 47.3884 23.4741 48.4489 22.1862C51.1563 25.5861 53.6149 29.227 55.6939 32.9541C56.5461 34.8569 56.235 37.2966 54.9003 39.1691C53.4939 41.1422 51.1781 42.2031 48.4813 42.1325C49.468 39.0896 49.5752 35.6361 48.7131 31.9525ZM48.3417 12.3012C47.1149 11.1348 45.8427 10.0134 44.5233 8.93492C45.3807 8.38069 46.2453 7.85528 47.1094 7.3764C48.5948 6.58551 49.8872 6.5471 50.5705 7.273C51.1209 7.85675 51.1284 8.80643 50.6321 9.63571L48.3417 12.3012ZM51.3287 10.1441C52.0759 8.91424 52.0247 7.55399 51.1994 6.67817C50.2331 5.65059 48.5517 5.62586 46.6974 6.61539C42.4443 8.97184 38.1935 12.3828 34.9175 15.1443C34.5414 14.8083 34.1593 14.4715 33.7732 14.1344C35.3463 12.9433 36.7801 11.8393 38.0597 10.8531C41.2465 8.39659 43.5485 6.62168 44.7701 6.01652L44.8519 5.96999C48.2171 3.79484 51.1568 3.66968 52.5251 5.64322C53.9247 7.66365 53.3563 11.3851 50.0618 13.9915C49.7015 13.6234 49.3378 13.2582 48.969 12.8986L51.3287 10.1441ZM51.1502 1.22796C53.6547 1.96125 55.5762 3.90487 56.1637 6.30341C56.9202 9.38758 55.4878 12.8979 52.1375 16.2139C51.8335 15.8739 51.5276 15.5353 51.2171 15.2019C55.1582 11.9969 55.6995 7.31324 53.8863 4.69615C52.3754 2.51694 48.9844 1.33762 43.992 4.54954C42.6212 5.24185 40.3974 6.95509 37.0495 9.53601C35.6947 10.5795 34.1734 11.7529 32.4892 13.0245C32.154 12.7376 31.8153 12.4496 31.4724 12.1601C33.3922 10.5359 35.2491 8.96998 37.0299 7.55103L37.0487 7.56582L37.1081 7.489C42.6308 3.09664 47.4282 0.128754 51.1502 1.22796ZM61.4084 29.2868C58.8309 24.6959 55.9481 20.5775 52.7114 16.863C56.3109 13.3151 57.8376 9.49985 57.0037 6.09774C56.3427 3.39904 54.1919 1.21466 51.3933 0.397186C48.0654 -0.58866 44.1185 1.27189 39.6754 4.45431C37.1382 1.84568 33.2242 -0.987426 27.4315 1.0607C25.617 2.1311 23.9322 3.39793 22.3318 4.7733C17.9023 0.619833 12.1792 -0.777336 8.25924 1.38747C5.04956 3.15867 3.79987 6.86908 4.84249 11.6078C5.57898 13.8863 7.34223 15.9994 9.39581 18.1528C8.67482 19.143 7.93098 20.0942 7.20593 21.0172C5.52443 23.1566 3.78586 25.3694 2.34423 28.121C-0.55598 33.8334 -0.699293 39.6881 1.9515 44.1831C3.98444 47.6297 7.48556 49.7625 11.3267 49.8888C11.4343 49.8896 11.5419 49.8905 11.6487 49.8905C13.9904 49.8905 16.1633 49.5371 18.1086 48.8675C21.0291 52.1906 25.6071 53.9607 30.4931 53.9607C33.5804 53.9601 36.7887 53.2559 39.7743 51.7946C41.6179 50.8929 43.2083 49.7742 44.5357 48.4762C45.9966 48.7487 47.4003 48.8894 48.7335 48.8894C53.511 48.8894 57.4032 47.1545 59.9403 43.8231C63.0376 39.7562 63.6457 33.786 61.4084 29.2868Z" fill="#EEEEEE"/>
</g>
<defs>
<clipPath id="clip0_4_3">
<rect width="63" height="54" fill="white"/>
</clipPath>
</defs>
</svg>
