<svg width="228" height="195" viewBox="0 0 228 195" fill="none" xmlns="http://www.w3.org/2000/svg">
<path d="M214.439 156.352C203.777 170.322 185.863 175.916 163.8 172.326C165.461 170.482 166.989 168.552 168.376 166.537C171.261 166.866 174.056 167.037 176.741 167.037C192.909 167.037 205.308 161.137 212.172 149.985C221.248 135.238 218.275 115.569 210.961 104.705C196.653 80.4223 175.92 55.965 153.817 37.2036C155.331 36.1383 156.855 35.0916 158.389 34.065C182.971 53.9503 202.984 77.9116 219.476 107.222C226.905 122.134 224.785 142.797 214.439 156.352ZM142.573 184.224C116.765 196.821 85.0546 192.782 68.6732 175.281C70.5146 174.53 72.2852 173.693 73.9932 172.778C85.5266 182.068 98.5692 185.988 111.195 185.988C127.42 185.985 142.948 179.53 153.645 169.753C169.339 155.41 179.241 130.042 160.112 101.782C161.009 100.314 161.945 98.8223 162.915 97.3156C166.605 101.39 169.024 106.758 171.553 112.428C172.123 113.701 172.695 114.982 173.281 116.253C177.141 132.84 175.289 148.061 168.38 160.505C168.313 160.497 168.251 160.493 168.185 160.485L168.124 160.973C162.609 170.669 153.991 178.649 142.573 184.224ZM41.0639 177.024C28.2706 176.608 16.5679 169.481 9.75723 157.957C0.718562 142.666 1.27323 122.625 11.2666 102.985C16.3399 93.3183 22.2626 85.7956 28.5372 77.8303C31.0719 74.6143 33.6706 71.2996 36.2119 67.8396C37.5119 69.1743 38.8332 70.5143 40.1652 71.8649C40.4052 72.1076 40.6452 72.3503 40.8852 72.5943C25.9226 89.4316 15.1972 106.552 11.3359 119.876C7.69324 132.861 9.32523 145.37 15.9266 155.1C21.9332 163.956 31.7559 169.9 42.2026 171.005L42.3906 171.026L42.5826 171.02C62.7466 170.577 78.1186 162.934 85.8719 149.497C93.2719 136.674 92.8892 119.616 84.8959 104.941C85.9826 103.524 87.0852 102.114 88.2052 100.713C98.3252 118.36 99.2732 137.697 90.6479 152.701C81.5852 168.462 63.4492 177.297 41.0639 177.024ZM20.5412 41.097C17.1279 25.5836 21.0866 13.4303 31.3999 7.7503C44.3466 0.620963 63.4412 5.38895 78.4466 19.3036C77.2586 20.3596 76.0839 21.433 74.9186 22.517C57.0866 6.90896 41.3479 8.11562 33.2332 13.9756C24.9679 19.945 22.8292 31.1903 27.8266 42.7196C31.2679 49.9783 39.4559 58.5436 48.1226 67.6063C55.0932 74.893 62.2599 82.4103 67.2186 89.4996C65.8826 91.209 64.5706 92.9409 63.2972 94.7103C58.4052 85.8969 50.2839 77.657 42.3932 69.6663C32.7572 59.9036 23.6532 50.685 20.5412 41.097ZM100.588 6.65695C119.272 0.0809531 131.937 8.69161 141.027 17.9436C139.483 19.0809 137.923 20.2569 136.347 21.4716L135.572 20.861C126.247 13.449 115.672 5.04895 96.4426 15.7423L95.9786 16.0596C80.6839 28.8263 68.7919 39.0956 56.3972 53.6076C55.1906 52.2396 53.9879 50.857 52.7919 49.461C54.4839 47.6983 56.1812 45.921 57.8919 44.1263C70.9906 30.369 84.5332 16.1383 100.588 6.65695ZM176.364 155.292C186.764 155.292 195.695 151.016 201.232 143.262C206.697 135.61 207.945 125.584 204.352 117.597C188.933 90.0036 167.937 63.7943 145.123 43.5876C146.339 42.6596 147.572 41.737 148.813 40.8196C170.841 59.2823 191.571 83.6103 205.888 107.9C212.252 117.364 214.828 134.23 207.063 146.841C200.601 157.342 188.444 162.149 171.797 160.849C172.751 159.03 173.608 157.158 174.359 155.236C175.032 155.27 175.701 155.292 176.364 155.292ZM150.028 113.074C145.712 121.408 145.265 136.757 153.931 143.728C153.035 146.181 151.839 148.538 150.351 150.776C129.396 129.286 147.861 103.288 161.423 84.221C164.492 79.8996 167.211 76.0676 169.197 72.6823C170.592 74.317 171.972 75.9676 173.335 77.6383C163.5 89.4503 155.288 103.301 150.028 113.074ZM154.933 140.446C149.361 134.832 148.849 123.453 152.252 115.708C155.989 124.326 156.843 132.781 154.933 140.446ZM112.363 172.942C123.62 172.942 134.928 169.034 143.263 162.701C159.491 150.36 163.512 131.505 154.076 112.184C154.891 110.705 155.767 109.149 156.695 107.54C171.567 131.666 162.997 153.08 149.6 165.324C132.837 180.645 102.971 186.949 79.4492 169.433C81.8159 167.764 83.9972 165.898 86.0039 163.869C93.5799 170.205 102.949 172.945 112.363 172.942ZM107.229 78.3783L112.105 72.8183C118.703 79.2996 125.064 85.925 131.335 92.4623L136.024 97.3409C133.525 101.697 131.236 106.305 129.247 111.37C125.468 125.618 123.268 144.122 139.287 161.684C124.897 171.328 102.837 173.757 88.1319 161.569C90.0866 159.312 91.8519 156.888 93.3612 154.261C102.724 137.976 101.579 117.005 90.3266 98.1036C95.6839 91.5369 101.36 85.0583 107.229 78.3783ZM75.6026 112.404C67.8426 121.516 65.8492 135.477 70.7386 145.86C69.2559 147.522 67.3812 149.156 65.0146 150.621C60.0599 137.05 61.2586 123.869 68.5172 112.454C77.6386 98.7276 89.2479 84.6276 105.999 66.937C107.296 68.161 108.584 69.3903 109.863 70.629L104.879 76.3143C94.2172 88.449 84.1466 99.9103 75.6026 112.404ZM74.6679 119.38C77.1119 124.91 78.1959 133.546 73.7972 141.554C73.5332 142.033 73.2319 142.524 72.9106 143.018C70.0746 135.693 70.7986 126.722 74.6679 119.38ZM27.8092 111.706C19.2772 127.716 21.9519 138.949 25.6986 145.553C30.7439 154.441 39.9586 158.762 47.0599 159.096C48.6599 158.964 50.1532 158.764 51.5986 158.532C51.6239 158.602 51.6439 158.672 51.6679 158.741L52.8039 158.336C66.7106 155.794 73.3759 148.821 76.5399 143.061C81.8852 133.328 80.0372 122.757 76.8306 116.66L76.0359 117.077C76.6652 116.114 77.3386 115.18 78.0852 114.302C79.0039 112.961 79.9466 111.638 80.8986 110.32C86.6519 122.557 86.6266 136.185 80.6759 146.498C75.9732 154.648 65.5639 164.461 42.6452 165.018C34.0026 164.048 25.8839 159.092 20.8892 151.734C16.9319 145.9 13.0666 135.921 17.1039 121.52C20.6972 109.128 30.8492 92.973 45.0906 76.889C46.2812 78.121 47.4559 79.3596 48.6092 80.6049C39.9506 91.2449 33.4919 100.897 27.8092 111.706ZM56.6159 104.9C46.6386 117.833 44.5119 136.146 50.6092 155.549C49.4546 155.72 48.2679 155.87 47.0079 155.974C40.9679 155.681 32.8799 151.865 28.4199 144.008C25.0639 138.09 22.7066 127.932 30.5732 113.17C36.0932 102.672 42.3666 93.2783 50.7399 82.9516C54.9879 87.7249 58.7519 92.5996 61.3012 97.6023C59.6839 99.9689 58.1039 102.38 56.6159 104.9ZM104.409 25.0263C88.1906 36.4836 74.2879 49.2783 64.0266 62.149C63.4199 61.473 62.8092 60.789 62.2066 60.1183C61.6132 59.4583 61.0172 58.793 60.4199 58.1276C72.6519 43.7063 84.4252 33.5236 99.6026 20.8516C114.956 12.4169 122.688 18.2916 131.492 25.277C130.213 26.297 128.925 27.3343 127.628 28.3916C121.881 23.8676 114.736 19.4983 104.409 25.0263ZM99.8172 32.249C101.853 30.705 103.931 29.1823 106.047 27.6863C113.831 23.5263 119.156 25.893 125.129 30.437C120.68 34.097 116.123 37.9383 111.465 41.8703C107.715 38.7356 103.837 35.541 99.8172 32.249ZM147.553 79.9423C146.439 81.485 145.336 83.0236 144.253 84.5676C141.272 81.6556 138.301 78.7236 135.324 75.7756C122.156 62.7476 108.541 49.3116 93.2799 37.4036C94.5906 36.3303 95.9199 35.265 97.2719 34.2103C116.911 50.2823 133.152 63.9556 147.553 79.9423ZM150.043 76.5089C149.837 76.7916 149.633 77.0716 149.429 77.353C142.931 70.181 136.073 63.469 128.716 56.8036C132.957 53.241 137.635 49.393 142.601 45.5303C148.535 50.7596 154.343 56.405 159.964 62.3756C156.743 67.289 153.336 71.9756 150.043 76.5089ZM152.573 78.3503C155.748 73.981 159.021 69.4636 162.156 64.7236C163.113 65.765 164.061 66.8223 165.007 67.881C163.197 71.365 160.109 75.7143 156.535 80.741C142.455 100.538 121.241 130.377 146.583 155.52C145.161 157.037 143.576 158.477 141.837 159.836C126.58 143.298 128.679 125.716 132.215 112.346C137.357 99.2783 144.748 89.1103 152.573 78.3503ZM95.4746 57.4383C92.4226 60.8743 89.3546 64.2396 86.3026 67.5636C83.2186 70.9249 80.1919 74.2356 77.2372 77.5649C73.6252 73.0369 69.8826 68.705 66.1479 64.5156C70.8186 58.609 76.2759 52.7143 82.3786 46.9636C86.8932 50.3023 91.2492 53.809 95.4746 57.4383ZM84.7119 44.801C85.9826 43.6423 87.2719 42.4876 88.5919 41.3436C103.984 53.2236 117.771 66.8463 131.104 80.0396C134.345 83.2463 137.576 86.4423 140.82 89.6049C139.747 91.2276 138.699 92.8703 137.68 94.5463L133.592 90.2943C118.531 74.5916 102.961 58.3783 84.7119 44.801ZM64.3399 32.897C61.3972 35.9103 58.4986 38.9503 55.6239 41.9703C53.9946 43.6823 52.3759 45.3756 50.7612 47.0583C47.8079 43.5263 44.9252 39.8903 42.2172 36.0916C40.7732 31.2196 41.1866 27.713 43.3826 26.2063C46.2479 24.2343 53.3759 24.9556 64.3399 32.897ZM41.6092 23.6249C39.6119 24.9969 36.6532 28.593 39.2946 37.245L39.5159 37.6943C42.3906 41.7423 45.4492 45.5943 48.5786 49.3263C48.5039 49.4036 48.4279 49.4823 48.3532 49.5596L50.5986 51.7396C50.6039 51.7356 50.6079 51.7303 50.6132 51.725C53.6852 55.3076 56.8052 58.7863 59.8799 62.209C64.9692 67.8703 70.2052 73.7316 75.1386 79.9503C73.7839 81.505 72.4492 83.069 71.1359 84.6476C66.0026 77.629 59.1319 70.441 52.4586 63.461C44.1332 54.7583 36.2732 46.5343 33.2892 40.2396C29.4386 31.357 30.7626 23.1569 36.7426 18.8396C43.0079 14.3169 55.5546 13.745 70.5546 26.6703C69.2106 27.9823 67.8812 29.3076 66.5599 30.6396C55.8559 22.805 46.6319 20.1756 41.6092 23.6249ZM64.9066 97.885C67.3839 94.3623 69.9812 90.9703 72.6919 87.6703L73.0772 87.4129C73.0519 87.3743 73.0226 87.3356 72.9959 87.297C77.9306 81.3156 83.1946 75.5783 88.6092 69.681C91.6786 66.3383 94.7666 62.9489 97.8359 59.4903C99.1012 60.6036 100.357 61.725 101.601 62.857C84.6266 80.789 72.8292 95.1223 63.4892 109.185C55.0452 122.461 53.7226 137.682 59.6039 153.274C57.8386 153.946 55.8719 154.52 53.7172 154.984C47.7892 136.43 49.6946 118.99 59.2039 106.652C60.9532 103.692 62.8159 100.873 64.7426 98.1236L64.9719 98.021C64.9506 97.9756 64.9266 97.9303 64.9066 97.885ZM176.295 115.384L176.189 115.081C175.581 113.776 174.995 112.461 174.411 111.152C171.775 105.244 169.032 99.1636 164.671 94.6223C167.917 89.7303 171.501 84.7676 175.339 80.117C185.137 92.3943 194.035 105.542 201.559 119.001C204.643 125.872 203.517 134.682 198.687 141.444C193.597 148.569 185.216 152.4 175.456 152.145C179.027 141.157 179.415 128.686 176.295 115.384ZM174.951 44.421C170.511 40.209 165.907 36.1596 161.132 32.265C164.235 30.2636 167.364 28.3663 170.491 26.637C175.867 23.781 180.544 23.6423 183.017 26.2636C185.009 28.3716 185.036 31.801 183.24 34.7956L174.951 44.421ZM185.761 36.6316C188.465 32.1903 188.28 27.2783 185.293 24.1156C181.796 20.4049 175.711 20.3156 169 23.8889C153.608 32.3983 138.224 44.7156 126.368 54.6876C125.007 53.4743 123.624 52.2583 122.227 51.041C127.92 46.7396 133.109 42.753 137.74 39.1916C149.273 30.321 157.604 23.9116 162.025 21.7263L162.321 21.5583C174.5 13.7036 185.139 13.2516 190.091 20.3783C195.156 27.6743 193.099 41.113 181.176 50.525C179.872 49.1956 178.556 47.877 177.221 46.5783L185.761 36.6316ZM185.115 4.43428C194.179 7.08228 201.133 14.1009 203.259 22.7623C205.997 33.8996 200.813 46.5756 188.688 58.5503C187.588 57.3223 186.481 56.0996 185.357 54.8956C199.62 43.3223 201.579 26.4089 195.017 16.9583C189.549 9.08895 177.277 4.83028 159.209 16.4289C154.248 18.9289 146.2 25.1156 134.084 34.4356C129.181 38.2036 123.675 42.441 117.58 47.033C116.367 45.997 115.141 44.957 113.9 43.9116C120.848 38.0463 127.568 32.3916 134.013 27.2676L134.081 27.321L134.296 27.0436C154.283 11.1823 171.645 0.464943 185.115 4.43428ZM222.24 105.758C212.912 89.1796 202.479 74.3076 190.765 60.8943C203.792 48.0823 209.317 34.305 206.299 22.0196C203.907 12.2743 196.123 4.38628 185.995 1.43428C173.951 -2.12572 159.667 4.59295 143.587 16.085C134.405 6.66495 120.24 -3.56571 99.2759 3.83029C92.7092 7.69563 86.6119 12.2703 80.8199 17.2369C64.7892 2.23828 44.0772 -2.80705 29.8906 5.01029C18.2746 11.4063 13.7519 24.805 17.5252 41.917C20.1906 50.145 26.5719 57.7756 34.0039 65.5516C31.3946 69.1276 28.7026 72.5623 26.0786 75.8956C19.9932 83.6209 13.7012 91.6116 8.48389 101.548C-2.01211 122.176 -2.53077 143.318 7.06257 159.55C14.4199 171.996 27.0906 179.698 40.9919 180.154C41.3812 180.157 41.7706 180.16 42.1572 180.16C50.6319 180.16 58.4959 178.884 65.5359 176.466C76.1052 188.466 92.6732 194.858 110.356 194.858C121.529 194.856 133.14 192.313 143.945 187.036C150.617 183.78 156.373 179.74 161.177 175.053C166.464 176.037 171.544 176.545 176.369 176.545C193.659 176.545 207.745 170.28 216.927 158.25C228.136 143.564 230.337 122.005 222.24 105.758Z" fill="#647B98"/>
</svg>
